<svg xmlns="http://www.w3.org/2000/svg" width="38.526" height="38.525">
    <path fill="#F79420"
        d="M23.058 10.659h-.006v-.002h-3.354v6.171h3.36a2.266 2.266 0 0 1 2.262 2.262 2.269 2.269 0 0 1-2.268 2.263l-3.354-.001v6.17h3.354v-.002l.006.001c4.654 0 8.433-3.774 8.433-8.431a8.434 8.434 0 0 0-8.433-8.431M19.263 0C8.623.003 0 8.626 0 19.265s8.623 19.258 19.263 19.261c10.639-.003 19.264-8.622 19.264-19.261S29.901.003 19.263 0M7.047 19.407v6.875a14.054 14.054 0 0 1-1.889-7.018c.014-7.792 6.315-14.094 14.105-14.107 7.793.014 14.096 6.315 14.109 14.108-.014 7.788-6.316 14.09-14.109 14.104a14.071 14.071 0 0 1-6.043-1.381v-4.811c.724.203 1.472.345 2.259.345v.001h3.364v-6.17l-3.364-.002a2.262 2.262 0 0 1 0-4.522h3.364v-6.171h-3.364v.001a8.432 8.432 0 0 0-8.432 8.432v.316z" />
</svg>